<?xml version="1.0" encoding="UTF-8"?> <svg xmlns="http://www.w3.org/2000/svg" viewBox="0 0 157.67 86"> <defs> <style>.cls-1{fill:none;stroke:#7b9c86;stroke-linecap:round;stroke-linejoin:round;stroke-width:3px;}</style> </defs> <title>1Монтажная область 32</title> <g id="Слой_2" data-name="Слой 2"> <path class="cls-1" d="M50.88,3.71S96-3.9,122.06,25.81c18.09,20.66,5.67,38.54,17.62,57.49,0,0-39-7.3-55-35.71C67.87,17.86,50.88,3.71,50.88,3.71Z"></path> <path class="cls-1" d="M89.9,20s16.63,11.09,26.49,29.22C131,76.07,139.68,83.3,139.68,83.3"></path> <path class="cls-1" d="M109.56,15s4.08,7.57,3.52,28.72"></path> <path class="cls-1" d="M76.35,34.05S59.19,16.54,3,35.81c0,0,21.51,5.93,43.3,27.72C72.13,89.41,93,82,104.07,81.49"></path> <path class="cls-1" d="M45.46,41.09s21-.76,49.82,20"></path> <path class="cls-1" d="M130,2.83s21.37,9.81,23,35.5c1.33,21-2.67,29,0,37.67"></path> </g> </svg> 